<svg width="364" height="37" viewBox="0 0 364 37" fill="none" xmlns="http://www.w3.org/2000/svg">
<path d="M3.52447 16.3461C3.18708 13.872 1.91827 11.5986 0 10V10L0.224638 14.4928C0.404851 18.097 1.5569 21.5854 3.55868 24.588L4.5 26V23.5L3.52447 16.3461Z" fill="#92C26D"/>
<path d="M14.64 7.67996C18.2666 7.67996 21.12 8.54663 23.2 10.28C25.28 12.0133 26.32 14.4 26.32 17.44C26.32 20.48 25.28 22.8666 23.2 24.6C21.12 26.3333 18.2666 27.2 14.64 27.2H7.71997V35.68H3.71997V7.67996H14.64ZM14.52 23.72C17.0533 23.72 18.9866 23.1866 20.32 22.12C21.6533 21.0266 22.32 19.4666 22.32 17.44C22.32 15.4133 21.6533 13.8666 20.32 12.8C18.9866 11.7066 17.0533 11.16 14.52 11.16H7.71997V23.72H14.52Z" fill="black"/>
<path d="M45.2272 36C42.4005 36 39.8538 35.3867 37.5872 34.16C35.3205 32.9067 33.5338 31.1867 32.2272 29C30.9472 26.8133 30.3072 24.3733 30.3072 21.68C30.3072 18.9867 30.9472 16.5467 32.2272 14.36C33.5338 12.1733 35.3205 10.4667 37.5872 9.23999C39.8538 7.98666 42.4005 7.35999 45.2272 7.35999C48.0272 7.35999 50.5605 7.98666 52.8272 9.23999C55.0938 10.4667 56.8672 12.1733 58.1472 14.36C59.4272 16.52 60.0672 18.96 60.0672 21.68C60.0672 24.4 59.4272 26.8533 58.1472 29.04C56.8672 31.2 55.0938 32.9067 52.8272 34.16C50.5605 35.3867 48.0272 36 45.2272 36ZM45.2272 32.44C47.2805 32.44 49.1205 31.9733 50.7472 31.04C52.4005 30.1067 53.6938 28.8267 54.6272 27.2C55.5872 25.5467 56.0672 23.7067 56.0672 21.68C56.0672 19.6533 55.5872 17.8267 54.6272 16.2C53.6938 14.5467 52.4005 13.2533 50.7472 12.32C49.1205 11.3867 47.2805 10.92 45.2272 10.92C43.1738 10.92 41.3072 11.3867 39.6272 12.32C37.9738 13.2533 36.6672 14.5467 35.7072 16.2C34.7738 17.8267 34.3072 19.6533 34.3072 21.68C34.3072 23.7067 34.7738 25.5467 35.7072 27.2C36.6672 28.8267 37.9738 30.1067 39.6272 31.04C41.3072 31.9733 43.1738 32.44 45.2272 32.44Z" fill="black"/>
<path d="M88.6609 7.99998H92.6609V32.52H107.821V36H88.6609V7.99998Z" fill="black"/>
<path d="M132.731 32.52V36H112.411V7.99998H132.171V11.48H116.411V20.08H130.451V23.48H116.411V32.52H132.731Z" fill="black"/>
<path d="M163.288 8.67621V36H160.008L143.208 15.12V36H139.208V7.99998H142.488L159.288 28.88V7.99998L163.288 8.67621Z" fill="black"/>
<path d="M200.251 29H185.371L182.291 36H178.171L190.851 7.99998H194.811L207.531 36H203.331L200.251 29ZM198.851 25.8L192.811 12.08L186.771 25.8H198.851Z" fill="black"/>
<path d="M235.788 7.99998V36H232.508L215.708 15.12V36H211.708V7.99998H214.988L231.788 28.88V7.99998H235.788Z" fill="black"/>
<path d="M262.009 29H247.129L244.049 36H239.929L252.609 7.99998H256.569L269.289 36H265.089L262.009 29ZM260.609 25.8L254.569 12.08L248.529 25.8H260.609Z" fill="black"/>
<path d="M273.466 7.99998H277.466V32.52H292.626V36H273.466V7.99998Z" fill="black"/>
<path d="M305.006 26.32V36H301.046V26.24L289.926 7.99998H294.206L303.166 22.76L312.166 7.99998H316.126L305.006 26.32Z" fill="black"/>
<path d="M327.759 36.32C325.652 36.32 323.612 36 321.639 35.36C319.692 34.6933 318.159 33.84 317.039 32.8L318.519 29.68C319.585 30.64 320.945 31.4267 322.599 32.04C324.279 32.6267 325.999 32.92 327.759 32.92C330.079 32.92 331.812 32.5333 332.959 31.76C334.105 30.96 334.679 29.9067 334.679 28.6C334.679 27.64 334.359 26.8667 333.719 26.28C333.105 25.6667 332.332 25.2 331.399 24.88C330.492 24.56 329.199 24.2 327.519 23.8C325.412 23.2933 323.705 22.7867 322.399 22.28C321.119 21.7733 320.012 21 319.079 19.96C318.172 18.8933 317.719 17.4666 317.719 15.68C317.719 14.1866 318.105 12.84 318.879 11.64C319.679 10.44 320.879 9.47998 322.479 8.75998C324.079 8.03998 326.065 7.67998 328.439 7.67998C330.092 7.67998 331.719 7.89332 333.319 8.31998C334.919 8.74665 336.292 9.35998 337.439 10.16L336.119 13.36C334.945 12.6133 333.692 12.0533 332.359 11.68C331.025 11.28 329.719 11.08 328.439 11.08C326.172 11.08 324.465 11.4933 323.319 12.32C322.199 13.1466 321.639 14.2133 321.639 15.52C321.639 16.48 321.959 17.2667 322.599 17.88C323.239 18.4667 324.025 18.9333 324.959 19.28C325.919 19.6 327.212 19.9467 328.839 20.32C330.945 20.8266 332.639 21.3333 333.919 21.84C335.199 22.3467 336.292 23.12 337.199 24.16C338.132 25.2 338.599 26.6 338.599 28.36C338.599 29.8267 338.199 31.1733 337.399 32.4C336.599 33.6 335.385 34.56 333.759 35.28C332.132 35.9733 330.132 36.32 327.759 36.32Z" fill="black"/>
<path d="M349.612 11.48H340.012V7.99998H363.172V11.48H353.572V36H349.612V11.48Z" fill="black"/>
<path d="M64.5 7.99998H68.5V32.52H83.66V36H64.5V7.99998Z" fill="black"/>
<path d="M311.858 7.68465C313.459 6.10136 315.547 5.10471 317.785 4.85606L318.83 4.73999L315.053 9.76775C313.694 11.5761 312.039 13.141 310.157 14.3956L310 14.5L309.428 14.8431C308.159 15.6048 307.074 16.639 306.253 17.871L305.5 19L306.488 16.0348C307.482 13.0536 309.164 10.3485 311.399 8.13882L311.858 7.68465Z" fill="#92C26D"/>
<path d="M164.535 25.474C165.158 23.2329 166.565 21.2902 168.5 20V20L167.921 23.0856C167.329 26.2465 165.573 29.0704 163 31V31L164.535 25.474Z" fill="#7AB54B"/>
<path d="M158.484 14.7898C158.824 13.9388 159.344 13.1561 159.992 12.508V12.508C160.314 12.1859 160.5 11.7441 160.5 11.2887V9H162V10.605C162 11.8317 161.583 13.0219 160.816 13.9797V13.9797C160.28 14.6502 159.911 15.439 159.74 16.2805L159.498 17.4732C159.36 18.156 159.29 18.851 159.29 19.5477V20.5V21.5L159.147 21.2784C158.398 20.1175 158 18.7652 158 17.3838V17.3034C158 16.4424 158.164 15.5893 158.484 14.7898V14.7898Z" fill="#92C26D"/>
<path d="M164.077 29.4598C164.026 29.8186 163.932 30.1701 163.797 30.5066V30.5066C163.273 31.8176 163.061 33.2325 163.177 34.6396L163.29 36H160L161 32L162 29L162.576 27.3345C163.049 25.9696 163.29 24.5353 163.29 23.0909V23.0909V22L163.629 22.6998C164.202 23.8845 164.5 25.1837 164.5 26.5V26.5L164.077 29.4598Z" fill="#92C26D"/>
<path d="M160.359 34.5L159 33L159.442 35.4255C159.503 35.7582 159.793 36 160.131 36H162L160.359 34.5Z" fill="#7AB54B"/>
<path d="M163 34.5L164.243 33L163.841 35.4151C163.784 35.7526 163.492 36 163.15 36H161.5L163 34.5Z" fill="#B1D397"/>
<path fill-rule="evenodd" clip-rule="evenodd" d="M166.246 0.565525C166.178 0.615401 166.109 0.665835 166.041 0.716819C163.404 2.69423 161.46 5.49993 160.505 8.71415L160.076 10.1584C160.135 10.1645 160.194 10.1694 160.253 10.1732C162.616 10.3242 164.737 8.64667 165.187 6.23673L166.246 0.565525ZM165.993 0.975972C163.463 2.92365 161.597 5.6509 160.671 8.76643L160.305 9.99713C162.565 10.1204 164.586 8.51013 165.017 6.20299L165.993 0.975972Z" fill="#FFEB78"/>
<rect width="1.78067" height="0.166051" transform="matrix(0.811486 -0.584372 0.562785 0.826603 164.417 3.42375)" fill="#FFEB78"/>
<rect width="1.56033" height="0.163018" transform="matrix(0.135395 -0.990792 0.989715 0.143052 164.425 3.51344)" fill="#FFEB78"/>
<rect width="1.9269" height="0.162933" transform="matrix(0.0339354 -0.999424 0.999356 0.035891 163.464 8.83537)" fill="#FFEB78"/>
<rect width="1.74093" height="0.163069" transform="matrix(0.168984 -0.985619 0.983952 0.178432 164.159 5.29314)" fill="#FFEB78"/>
<path d="M163.087 4.93541L163.381 3.21952L163.542 3.24861L163.247 4.9645L163.087 4.93541Z" fill="#FFEB78"/>
<rect width="1.74093" height="0.163069" transform="matrix(-0.168984 -0.985619 0.983952 -0.178432 162.478 6.39542)" fill="#FFEB78"/>
<rect width="1.74093" height="0.163069" transform="matrix(-0.168984 -0.985619 0.983952 -0.178432 162.772 8.00512)" fill="#FFEB78"/>
<rect width="1.73917" height="0.163242" transform="matrix(-0.252122 -0.967696 0.964065 -0.265668 163.438 6.73448)" fill="#FFEB78"/>
<rect width="1.17672" height="0.163765" transform="matrix(0.412946 -0.910756 0.901674 0.432417 162.019 7.45293)" fill="#FFEB78"/>
<rect width="1.17872" height="0.163476" transform="matrix(0.333627 -0.942705 0.936537 0.350568 162.6 6.29817)" fill="#FFEB78"/>
<rect width="1.17872" height="0.163476" transform="matrix(0.333627 -0.942705 0.936537 0.350568 163.643 6.6559)" fill="#FFEB78"/>
<rect width="1.9269" height="0.162933" transform="matrix(0.0339354 -0.999424 0.999356 0.035891 161.868 9.63363)" fill="#FFEB78"/>
<rect width="1.89136" height="0.166051" transform="matrix(0.811486 -0.584372 0.562785 0.826603 163.701 6.80237)" fill="#FFEB78"/>
<rect width="1.89136" height="0.166051" transform="matrix(0.811486 -0.584372 0.562785 0.826603 162.652 6.47113)" fill="#FFEB78"/>
<rect width="1.90512" height="0.164858" transform="matrix(0.632174 -0.774826 0.757073 0.65333 164.217 5.41112)" fill="#FFEB78"/>
<rect width="1.90512" height="0.164858" transform="matrix(0.632174 -0.774826 0.757073 0.65333 163.174 5.05335)" fill="#FFEB78"/>
<rect width="1.89136" height="0.166051" transform="matrix(0.811486 -0.584372 0.562785 0.826603 160.483 8.64553)" fill="#FFEB78"/>
<ellipse cx="166.088" cy="0.850782" rx="0.305489" ry="0.314178" fill="#FFCE1F"/>
<ellipse cx="164.697" cy="1.92391" rx="0.305489" ry="0.314178" fill="#FFCE1F"/>
<path d="M163.783 3.17595C163.783 3.34946 163.646 3.49013 163.477 3.49013C163.308 3.49013 163.172 3.34946 163.172 3.17595C163.172 3.00243 163.308 2.86177 163.477 2.86177C163.646 2.86177 163.783 3.00243 163.783 3.17595Z" fill="#FFCE1F"/>
<ellipse cx="160.625" cy="8.4409" rx="0.305489" ry="0.314178" fill="#FFCE1F"/>
<ellipse cx="164.617" cy="7.47747" rx="0.305489" ry="0.314178" fill="#FFCE1F"/>
<ellipse cx="163.558" cy="8.85984" rx="0.305489" ry="0.314178" fill="#FFCE1F"/>
<ellipse cx="160.218" cy="9.8652" rx="0.305489" ry="0.314178" fill="#FFCE1F"/>
<ellipse cx="162.262" cy="4.78572" rx="0.305489" ry="0.314178" fill="#FFCE1F"/>
<ellipse cx="161.603" cy="5.17347" rx="0.305489" ry="0.314178" fill="#FFCE1F"/>
<ellipse cx="161.074" cy="6.8072" rx="0.305489" ry="0.314178" fill="#FFCE1F"/>
<ellipse cx="165.758" cy="2.4506" rx="0.305489" ry="0.314178" fill="#FFCE1F"/>
<ellipse cx="165.473" cy="3.95864" rx="0.305489" ry="0.314178" fill="#FFCE1F"/>
<ellipse cx="164.523" cy="3.53368" rx="0.305489" ry="0.314178" fill="#FFCE1F"/>
<ellipse cx="164.175" cy="5.50118" rx="0.305489" ry="0.314178" fill="#FFCE1F"/>
<ellipse cx="163.132" cy="5.14342" rx="0.305489" ry="0.314178" fill="#FFCE1F"/>
<ellipse cx="162.61" cy="6.39549" rx="0.305489" ry="0.314178" fill="#FFCE1F"/>
<ellipse cx="163.64" cy="6.8072" rx="0.305489" ry="0.314178" fill="#FFCE1F"/>
<ellipse cx="162.051" cy="7.56124" rx="0.305489" ry="0.314178" fill="#FFCE1F"/>
<ellipse cx="165.147" cy="5.75994" rx="0.305489" ry="0.314178" fill="#FFCE1F"/>
<path d="M159.048 5.54449C159.194 4.07269 159.696 2.65853 160.511 1.42427V1.42427L160.766 1.68183C161.78 2.70585 162.269 4.13835 162.092 5.56865V5.56865C161.882 7.26365 160.77 8.71163 159.186 9.35126L158.65 9.56777L159.048 5.54449Z" fill="#FFEB78"/>
<path d="M161.932 8.7653C160.725 5.37062 158.653 2.34948 155.921 0V0L156.866 7.11157C157.1 8.87745 158.586 10.2093 160.367 10.2498V10.2498C160.754 10.2587 161.14 10.2052 161.51 10.0916L162.316 9.84425L161.932 8.7653Z" fill="#FFDD1F"/>
<path d="M163.245 6.99687C163.857 6.60785 164.535 6.33526 165.246 6.19284L167 5.8415L165.193 7.75022C164.994 7.96046 164.821 8.19443 164.68 8.44686V8.44686C164.099 9.48062 163.037 10.1528 161.854 10.2353L160.739 10.313L160.876 9.93935C161.321 8.72488 162.153 7.69076 163.245 6.99687V6.99687Z" fill="#92C26D"/>
<path d="M159.724 7.30059C158.883 6.73911 157.934 6.35851 156.937 6.18291L155 5.8415L156.748 7.74506C156.929 7.94237 157.09 8.15684 157.23 8.38544V8.38544C158.178 9.93798 160.03 10.6868 161.791 10.2289L162.304 10.0953L161.612 9.12789C161.099 8.40973 160.459 7.79062 159.724 7.30059V7.30059Z" fill="#7AB54B"/>
</svg>
