<svg width="322" height="287" viewBox="0 0 322 287" fill="none" xmlns="http://www.w3.org/2000/svg">
<path fill-rule="evenodd" clip-rule="evenodd" d="M301.78 14.7549C299.931 16.0563 298.094 17.3721 296.27 18.7024C225.511 70.2947 173.347 143.498 147.714 227.36L136.196 265.043C137.787 265.201 139.375 265.33 140.958 265.428C204.37 269.368 261.283 225.6 273.36 162.722L301.78 14.7549ZM294.971 25.4639C227.087 76.2807 177.023 147.437 152.177 228.724L142.362 260.834C202.991 264.05 257.216 222.037 268.777 161.842L294.971 25.4639Z" fill="#FFEB78"/>
<rect x="252.7" y="89.3282" width="47.3338" height="4.37184" transform="rotate(-35 252.7 89.3282)" fill="#FFEB78"/>
<rect x="252.919" y="91.6691" width="40.732" height="4.37184" transform="rotate(-82 252.919 91.6691)" fill="#FFEB78"/>
<rect x="227.129" y="230.523" width="50.2762" height="4.37184" transform="rotate(-88 227.129 230.523)" fill="#FFEB78"/>
<rect x="245.776" y="138.102" width="45.4598" height="4.37184" transform="rotate(-80 245.776 138.102)" fill="#FFEB78"/>
<path d="M216.999 128.769L224.893 84L229.199 84.7592L221.305 129.528L216.999 128.769Z" fill="#FFEB78"/>
<rect x="200.666" y="166.862" width="45.4598" height="4.37184" transform="rotate(-100 200.666 166.862)" fill="#FFEB78"/>
<rect x="208.559" y="208.862" width="45.4598" height="4.37184" transform="rotate(-100 208.559 208.862)" fill="#FFEB78"/>
<rect x="226.432" y="175.709" width="45.4598" height="4.37184" transform="rotate(-105 226.432 175.709)" fill="#FFEB78"/>
<rect x="188.336" y="194.454" width="30.8525" height="4.37184" transform="rotate(-65 188.336 194.454)" fill="#FFEB78"/>
<rect x="203.932" y="164.325" width="30.8525" height="4.37184" transform="rotate(-70 203.932 164.325)" fill="#FFEB78"/>
<rect x="231.932" y="173.659" width="30.8525" height="4.37184" transform="rotate(-70 231.932 173.659)" fill="#FFEB78"/>
<rect x="184.286" y="251.35" width="50.2762" height="4.37184" transform="rotate(-88 184.286 251.35)" fill="#FFEB78"/>
<rect x="233.469" y="177.48" width="50.2762" height="4.37184" transform="rotate(-35 233.469 177.48)" fill="#FFEB78"/>
<rect x="205.333" y="168.837" width="50.2762" height="4.37184" transform="rotate(-35 205.333 168.837)" fill="#FFEB78"/>
<rect x="247.333" y="141.18" width="50.2762" height="4.37184" transform="rotate(-50 247.333 141.18)" fill="#FFEB78"/>
<rect x="219.333" y="131.847" width="50.2762" height="4.37184" transform="rotate(-50 219.333 131.847)" fill="#FFEB78"/>
<rect x="147.126" y="225.57" width="50.2762" height="4.37184" transform="rotate(-35 147.126 225.57)" fill="#FFEB78"/>
<circle cx="297.53" cy="22.1972" r="8.19721" fill="#FFCE1F"/>
<circle cx="260.196" cy="50.1972" r="8.19721" fill="#FFCE1F"/>
<path d="M235.666 82.8639C235.666 87.3911 231.996 91.0611 227.469 91.0611C222.942 91.0611 219.272 87.3911 219.272 82.8639C219.272 78.3367 222.942 74.6667 227.469 74.6667C231.996 74.6667 235.666 78.3367 235.666 82.8639Z" fill="#FFCE1F"/>
<circle cx="150.951" cy="220.232" r="8.19721" fill="#FFCE1F"/>
<circle cx="258.061" cy="195.094" r="8.19721" fill="#FFCE1F"/>
<circle cx="229.644" cy="231.161" r="8.19721" fill="#FFCE1F"/>
<circle cx="140.022" cy="257.392" r="8.19721" fill="#FFCE1F"/>
<circle cx="194.863" cy="124.864" r="8.19721" fill="#FFCE1F"/>
<circle cx="177.183" cy="134.981" r="8.19721" fill="#FFCE1F"/>
<circle cx="162.975" cy="177.606" r="8.19721" fill="#FFCE1F"/>
<circle cx="288.664" cy="63.9382" r="8.19721" fill="#FFCE1F"/>
<circle cx="281.014" cy="103.285" r="8.19721" fill="#FFCE1F"/>
<circle cx="255.53" cy="92.1972" r="8.19721" fill="#FFCE1F"/>
<circle cx="246.196" cy="143.531" r="8.19721" fill="#FFCE1F"/>
<circle cx="218.196" cy="134.197" r="8.19721" fill="#FFCE1F"/>
<circle cx="204.196" cy="166.864" r="8.19721" fill="#FFCE1F"/>
<circle cx="231.831" cy="177.606" r="8.19721" fill="#FFCE1F"/>
<circle cx="189.205" cy="197.279" r="8.19721" fill="#FFCE1F"/>
<circle cx="272.27" cy="150.282" r="8.19721" fill="#FFCE1F"/>
<path d="M112.03 111.331C113.71 94.8311 119.468 79.0087 128.784 65.2881L147.883 37.1606L162.416 51.4292C184.723 73.3307 195.505 104.404 191.557 135.415L188.661 158.157C184.046 194.405 160.028 225.25 126.017 238.607L97.9434 249.632L112.03 111.331Z" fill="#FFEB78"/>
<path d="M145.771 118.704C139.74 102.219 129.476 87.6124 116.011 76.3515L24.7142 0L49.7112 183.003C56.2095 230.577 96.3214 266.372 144.325 267.435V267.435C154.509 267.661 164.665 266.292 174.426 263.378L196.309 256.846L145.771 118.704Z" fill="#FFDD1F"/>
<path d="M230.542 176.802C240.814 170.453 252.15 166.016 264.003 163.707L322 152.41L273.583 202.13C268.19 207.668 263.505 213.856 259.638 220.55V220.55C244.094 247.459 216.171 264.861 185.166 266.963L154 269.077L164.064 242.361C171.853 221.684 186.27 204.169 205.064 192.551L230.542 176.802Z" fill="#92C26D"/>
<path d="M109.782 179.459C98.3966 172.074 85.6272 167.083 72.2513 164.791L6.67572e-06 152.41L47.4519 202.668C51.9406 207.422 55.9522 212.605 59.4291 218.142L63.9829 225.394C87.044 262.12 131.148 279.797 173.19 269.164L196 263.395L167.397 224.518C160.245 214.797 151.393 206.451 141.269 199.884L109.782 179.459Z" fill="#7AB54B"/>
</svg>
